<svg width="112" height="56" viewBox="0 0 112 56" fill="none" xmlns="http://www.w3.org/2000/svg">
<path fill-rule="evenodd" clip-rule="evenodd" d="M32.3803 20.9751V41.9502H16.6337H0.88713V20.9751V0H16.6337H32.3803V20.9751ZM1.55248 20.9751V41.2879H16.6337H31.7149V20.9751V0.662372H16.6337H1.55248V20.9751ZM74.2972 23.8458V41.951L59.6318 41.9231L44.9664 41.895L44.9379 23.9558C44.9223 14.0892 44.9332 5.9545 44.9622 5.87855C45.004 5.76915 48.0452 5.74056 59.6561 5.74056H74.2972V23.8458ZM45.6872 23.8454V41.2879H59.6595H73.6318V23.8454V6.40293H59.6595H45.6872V23.8454ZM110.67 27.0469V42.0606H98.6933H86.717V27.0469V12.0331H98.6933H110.67V27.0469ZM87.3823 27.0469V41.3983H98.6933H110.004V27.0469V12.6955H98.6933H87.3823V27.0469ZM52.1298 16.0181C52.2981 16.1857 52.3505 16.3514 52.3193 16.6176C52.2797 16.9555 52.3104 16.9989 52.6969 17.15C53.317 17.3926 53.4861 18.0698 52.9922 18.333C52.793 18.4391 52.7843 18.683 52.7843 24.1252C52.7843 27.75 52.8235 29.8067 52.8926 29.8067C52.9521 29.8067 53.084 29.9329 53.1856 30.0873C53.436 30.4677 53.2491 30.867 52.7173 31.0882C52.3965 31.2217 52.33 31.2997 52.3788 31.4857C52.4517 31.7628 52.1988 32.2917 51.9476 32.3877C51.6114 32.5161 51.2622 32.4567 50.9592 32.2194C50.7149 32.0281 50.6651 31.912 50.6999 31.6151C50.738 31.2905 50.7046 31.2345 50.4124 31.133C49.697 30.8849 49.4673 30.3631 49.9011 29.9723C50.1173 29.7775 50.1229 29.6323 50.1229 24.1214C50.1229 18.6104 50.1173 18.4653 49.9011 18.2704C49.7791 18.1606 49.6793 17.9577 49.6793 17.8198C49.6793 17.5648 50.0783 17.1753 50.4646 17.0532C50.6199 17.0042 50.6773 16.8836 50.6773 16.6071C50.6773 16.3753 50.7635 16.1423 50.8991 16.0073C51.1986 15.7091 51.8249 15.7147 52.1298 16.0181ZM51.1638 16.3863C51.0448 16.6952 51.2084 16.9078 51.5361 16.8703C51.7788 16.8425 51.8417 16.7784 51.8417 16.5593C51.8417 16.3402 51.7788 16.2761 51.5361 16.2483C51.3368 16.2255 51.2073 16.2735 51.1638 16.3863ZM7.05568 18.3608L8.82063 19.5001L9.30699 19.244C10.0033 18.8774 11.0731 18.8869 11.7384 19.2655L12.2212 19.5403L14.0103 18.4361C15.5529 17.4842 15.8652 17.3321 16.2771 17.3321C17.1387 17.3321 17.6373 18.1291 17.2332 18.8606C17.0459 19.1996 16.7944 19.3453 15.0258 20.139L13.0297 21.0346L12.9685 21.5292C12.8699 22.3253 12.4462 22.9305 11.6424 23.4241L11.3639 23.5951L11.491 25.5693C11.6572 28.1534 11.5367 28.482 10.4226 28.482C9.82164 28.482 9.31465 28.0184 9.3152 27.4693C9.31564 27.094 9.4883 24.973 9.59354 24.0504C9.65176 23.5405 9.64954 23.5363 9.1604 23.251C8.56447 22.9033 8.20984 22.362 8.04672 21.5513L7.9244 20.9435L5.98591 20.0398C4.22163 19.2174 4.02935 19.0998 3.8446 18.7316C3.67383 18.3908 3.66196 18.2659 3.76997 17.9402C3.93531 17.4417 4.26056 17.2217 4.83242 17.2217C5.22597 17.2217 5.54024 17.3826 7.05568 18.3608ZM50.3693 17.5786C49.8166 17.8436 50.4186 18.2113 51.4093 18.2136C52.5615 18.2163 53.1552 17.8669 52.5018 17.5706C52.149 17.4106 50.7083 17.416 50.3693 17.5786ZM4.57338 17.6741C4.19424 17.815 4.03046 18.2551 4.24015 18.5695C4.37344 18.7695 6.9561 20.0797 8.01234 20.4832C8.15173 20.5365 8.42774 20.1339 8.42774 19.8772C8.42774 19.7724 5.43523 17.8102 5.06174 17.6702C4.93089 17.6212 4.71111 17.623 4.57338 17.6741ZM14.5769 18.6088C12.2646 20.023 12.4976 19.8262 12.7183 20.1777C12.8221 20.3431 12.9214 20.4982 12.9388 20.5224C12.9562 20.5467 13.7822 20.2068 14.7744 19.7669C16.4837 19.0093 16.9664 18.7041 16.9664 18.3808C16.9664 18.1763 16.6152 17.8035 16.3511 17.7277C16.1891 17.6813 15.6806 17.9337 14.5769 18.6088ZM50.5664 24.1164V29.5469L51.4536 29.5395L52.3407 29.5322V24.109V18.6858H51.4536H50.5664V24.1164ZM9.85314 19.489C8.89415 19.7894 8.25841 20.8603 8.521 21.733C9.11194 23.6965 12.0686 23.6518 12.5091 21.6726C12.83 20.2311 11.355 19.0185 9.85314 19.489ZM98.453 23.7775C100.059 23.9221 101.42 24.0868 101.477 24.1435C101.63 24.296 101.728 25.9381 101.61 26.3808C101.484 26.8578 101.535 26.8465 98.1388 27.1559C94.7544 27.4644 91.2058 27.5607 90.82 27.3545C90.18 27.0126 89.8944 25.709 90.2072 24.5583C90.5311 23.3668 90.5437 23.3623 93.2596 23.4452C94.5099 23.4833 96.8469 23.6329 98.453 23.7775ZM10.0411 23.7626C9.94651 24.0657 9.73859 27.3946 9.79913 27.6349C9.93342 28.1675 10.8054 28.2371 11.0743 27.7369C11.1466 27.6024 11.1427 26.8711 11.0626 25.5789L10.9415 23.6246H10.5128C10.2668 23.6246 10.0658 23.6833 10.0411 23.7626ZM90.9567 24.0405C90.5985 24.397 90.4288 25.3503 90.5983 26.0536C90.8227 26.9854 90.9365 27.0469 92.4349 27.0469C94.9685 27.0469 100.985 26.5015 101.154 26.2565C101.291 26.0565 101.193 24.6128 101.035 24.5157C100.84 24.3955 95.1973 23.9401 93.0812 23.8738C91.2746 23.8171 91.1731 23.8251 90.9567 24.0405ZM92.7074 24.5641C93.3541 24.897 93.4607 25.6493 92.9355 26.1722C92.42 26.6853 91.5282 26.5592 91.1998 25.9269C91.0059 25.5537 91.0051 25.3054 91.1966 24.9615C91.4913 24.432 92.1264 24.265 92.7074 24.5641ZM91.8696 24.7243C91.087 25.0365 91.2146 26.0167 92.0647 26.2232C92.3082 26.2824 92.4319 26.2319 92.7024 25.9627C93.1031 25.5636 93.1196 25.3825 92.7883 25.0197C92.4955 24.699 92.1839 24.5988 91.8696 24.7243ZM50.468 30.1616C50.3224 30.2396 50.2032 30.3532 50.2032 30.4139C50.2032 30.7964 51.9479 30.9511 52.5818 30.6248C52.8995 30.4613 52.9101 30.4368 52.7387 30.266C52.4982 30.0265 50.8602 29.9511 50.468 30.1616ZM51.1633 31.5119C51.0704 31.7528 51.3304 32.0322 51.6101 31.9924C51.7744 31.9691 51.8417 31.8792 51.8417 31.6835C51.8417 31.4643 51.7788 31.4003 51.5361 31.3725C51.3359 31.3495 51.2074 31.3977 51.1633 31.5119ZM4.99355 47.7572L5.54401 47.92L5.37446 48.3241C5.28109 48.5464 5.18638 48.7465 5.16387 48.769C5.14125 48.7914 4.85937 48.7318 4.53734 48.6367C3.36655 48.2906 1.99593 48.4967 1.61447 49.0763C1.51943 49.2208 1.44159 49.5195 1.44159 49.7402C1.44159 50.3554 1.88404 50.6897 3.33572 51.1712C5.20657 51.7919 5.87668 52.4251 5.87702 53.5729C5.87757 55.1049 4.58846 56.0139 2.43961 55.9968C1.40521 55.9885 0 55.6306 0 55.3753C0 55.2957 0.0562235 55.0701 0.124976 54.8738C0.259044 54.4908 0.230655 54.4927 1.09993 54.8099C1.77947 55.0578 2.84414 55.138 3.41423 54.9841C3.67583 54.9134 4.05008 54.7132 4.24592 54.5389C4.55031 54.2683 4.60199 54.1475 4.60199 53.7079C4.60199 52.9478 4.15421 52.5834 2.57711 52.0602C1.11545 51.5754 0.416064 51.0587 0.215018 50.3153C-0.330124 48.2997 2.21683 46.9363 4.99355 47.7572ZM111.117 47.7572L111.667 47.92L111.497 48.3241C111.404 48.5464 111.309 48.7465 111.287 48.769C111.264 48.7914 110.982 48.7318 110.66 48.6367C109.49 48.2906 108.119 48.4967 107.737 49.0763C107.642 49.2208 107.565 49.5195 107.565 49.7402C107.565 50.3554 108.007 50.6897 109.459 51.1712C111.33 51.7919 112 52.4251 112 53.5729C112.001 55.1049 110.711 56.0139 108.563 55.9968C107.528 55.9885 106.123 55.6306 106.123 55.3753C106.123 55.2957 106.179 55.0701 106.248 54.8738C106.382 54.4908 106.354 54.4927 107.223 54.8099C107.902 55.0578 108.967 55.138 109.537 54.9841C109.799 54.9134 110.173 54.7132 110.369 54.5389C110.673 54.2683 110.725 54.1475 110.725 53.7079C110.725 52.9478 110.277 52.5834 108.7 52.0602C107.238 51.5754 106.539 51.0587 106.338 50.3153C105.793 48.2997 108.34 46.9363 111.117 47.7572ZM56.8202 47.7454C57.2407 47.8342 57.6104 47.9323 57.6419 47.9637C57.6732 47.9949 57.6379 48.2237 57.5631 48.4719C57.4618 48.8088 57.3834 48.9065 57.2538 48.857C56.6634 48.6314 55.9727 48.5549 54.8677 48.5926C53.8133 48.6285 53.5198 48.6799 53.006 48.9182C52.1833 49.2997 51.7811 49.6594 51.4027 50.3515C51.139 50.834 51.0844 51.0659 51.0824 51.713C51.0783 53.0744 51.638 53.9689 52.8952 54.6105C53.4719 54.9047 53.5836 54.9217 54.9466 54.9217C55.7395 54.9217 56.4756 54.886 56.5823 54.8423C56.7497 54.7739 56.7763 54.6039 56.7763 53.6004V52.4378H55.7783H54.7803V51.9962V51.5546H56.3882H57.9962V53.5236V55.4928L57.1922 55.6878C55.3634 56.1317 53.2502 56.0001 51.9375 55.3607C50.3804 54.6023 49.4654 52.8225 49.7894 51.1824C50.2301 48.9527 52.2126 47.6003 55.0575 47.5883C55.6064 47.5861 56.3997 47.6568 56.8202 47.7454ZM89.0668 47.8999C90.1429 48.315 90.5879 49.044 90.4592 50.1809C90.3884 50.8058 89.9488 51.3857 89.3123 51.6936L88.824 51.9298L89.1594 52.1412C89.6252 52.4348 89.9703 53.079 90.3535 54.3697C90.5337 54.9769 90.7176 55.5607 90.7624 55.6669C90.8346 55.8385 90.7686 55.86 90.17 55.86H89.4964L89.2101 54.8941C88.7831 53.454 88.6162 53.0367 88.3837 52.8272C88.0356 52.5136 87.373 52.3373 86.5229 52.3323L85.719 52.3274V54.0937V55.86H85.1077H84.4964L84.5256 51.803L84.5546 47.746L85.1091 47.6745C85.414 47.635 86.2873 47.615 87.0497 47.6297C88.169 47.6514 88.5572 47.7034 89.0668 47.8999ZM99.6913 47.8577C100.58 48.1325 101.097 48.4215 101.691 48.9746C102.469 49.6987 102.74 50.3816 102.736 51.6098C102.734 52.4634 102.689 52.7002 102.419 53.2903C101.865 54.496 100.868 55.2595 99.2726 55.698C98.5348 55.9007 96.0212 56.0359 95.106 55.9221L94.4767 55.8438L94.5058 51.795L94.5348 47.746L95.1447 47.6742C96.2724 47.5415 99.0287 47.6527 99.6913 47.8577ZM15.6138 51.6934C16.5407 53.8949 17.299 55.733 17.299 55.778C17.299 55.8232 17.0056 55.86 16.647 55.86H15.9951L15.4659 54.588L14.9367 53.3158L13.1163 53.346L11.2961 53.3762L10.8197 54.5905L10.3434 55.8048L9.6644 55.8376C9.03664 55.868 8.99162 55.8548 9.06703 55.661C9.11183 55.5459 9.8721 53.7065 10.7565 51.5734L12.3644 47.6952L13.1465 47.693L13.9285 47.6908L15.6138 51.6934ZM26.2812 48.1324V48.574H24.2298H22.1783V49.8987V51.2234H24.0634H25.9486V51.7202V52.217H24.0634H22.1783V54.0385V55.86H21.5684H20.9585V51.7754V47.6908H23.6198H26.2812V48.1324ZM35.707 48.1324V48.574H33.6555H31.604V49.8435V51.113H33.5446H35.4852V51.6098V52.1066H33.5446H31.604V53.5417V54.9769H33.7664H35.9288V55.4185V55.86H33.1565H30.3842V51.7754V47.6908H33.0456H35.707V48.1324ZM63.3189 50.3202C63.3189 53.3494 63.4004 53.8068 64.0564 54.4599C64.509 54.9104 64.9937 55.0857 65.7898 55.0866C66.7352 55.0877 67.4491 54.6593 67.904 53.8177C68.1275 53.4042 68.145 53.1954 68.1787 50.5335L68.2147 47.6908H68.8164H69.418V50.3606C69.418 53.7075 69.339 54.0755 68.4265 54.9825C67.6617 55.7427 66.932 56.0053 65.5999 55.9999C64.3763 55.995 63.6018 55.6966 62.9558 54.9812C62.1679 54.1088 62.0991 53.7485 62.0991 50.4932V47.6908H62.709H63.3189V50.3202ZM79.1545 51.6934C80.0814 53.8949 80.8398 55.733 80.8398 55.778C80.8398 55.8232 80.5463 55.86 80.1877 55.86H79.5358L79.0066 54.588L78.4774 53.3158L76.6571 53.346L74.8368 53.3762L74.3604 54.5905L73.8841 55.8048L73.2051 55.8376C72.5774 55.868 72.5323 55.8548 72.6077 55.661C72.6525 55.5459 73.4128 53.7065 74.2972 51.5734L75.9051 47.6952L76.6872 47.693L77.4692 47.6908L79.1545 51.6934ZM85.913 48.5328C85.7412 48.5836 85.719 48.7536 85.719 50.0172V51.4442L86.8002 51.4418C88.4719 51.4381 89.2675 50.9583 89.2675 49.9539C89.2675 49.4159 88.9913 48.997 88.4543 48.7206C88.1056 48.5409 86.3292 48.4097 85.913 48.5328ZM96.2259 48.5447L95.6992 48.5861V51.7657V54.9454L96.3501 55.0132C97.0301 55.084 98.4685 54.9539 99.1407 54.761C100.146 54.4724 101.079 53.5417 101.355 52.552C101.645 51.5158 101.379 50.2956 100.717 49.617C99.8411 48.7188 98.3978 48.3742 96.2259 48.5447ZM12.5652 50.085C12.2526 50.863 11.9167 51.6858 11.8187 51.9134L11.6406 52.3274H13.1274H14.6144L14.0587 51.0303C13.7531 50.3169 13.4198 49.4941 13.3183 49.2019L13.1336 48.6708L12.5652 50.085ZM76.1059 50.085C75.7933 50.863 75.4574 51.6858 75.3594 51.9134L75.1813 52.3274H76.6681H78.1551L77.5994 51.0303C77.2938 50.3169 76.9606 49.4941 76.859 49.2019L76.6744 48.6708L76.1059 50.085Z" fill="black"/>
</svg>
